<?xml version="1.0" standalone="no"?>
<!DOCTYPE svg PUBLIC "-//W3C//DTD SVG 20010904//EN"
 "http://www.w3.org/TR/2001/REC-SVG-20010904/DTD/svg10.dtd">
<svg version="1.0" xmlns="http://www.w3.org/2000/svg"
 width="1100.000000pt" height="1100.000000pt" viewBox="0 0 1100.000000 1100.000000"
 preserveAspectRatio="xMidYMid meet">
<metadata>
Created by potrace 1.11, written by Peter Selinger 2001-2013
</metadata>
<g transform="translate(0.000000,1100.000000) scale(0.100000,-0.100000)"
fill="#000000" stroke="none">
<path d="M5076 10893 c-2 -2 -18 -5 -37 -7 -62 -7 -143 -16 -204 -21 -33 -3
-74 -8 -92 -11 -17 -2 -60 -7 -95 -9 -35 -3 -72 -7 -83 -9 -11 -2 -54 -7 -95
-11 -41 -4 -82 -9 -90 -10 -8 -1 -49 -6 -90 -10 -153 -14 -188 -22 -195 -46
-15 -47 13 -70 77 -63 69 7 165 16 203 19 57 4 164 15 205 20 19 2 62 7 95 10
33 3 77 7 97 10 21 3 64 7 95 10 32 3 70 7 85 11 15 3 32 3 37 0 5 -4 -47 -65
-117 -136 -118 -120 -130 -130 -172 -136 -25 -3 -54 -7 -65 -9 -118 -22 -115
-22 -252 50 -162 86 -164 87 -181 103 -20 18 -56 15 -75 -6 -28 -31 -21 -59
23 -87 22 -14 42 -25 46 -25 3 0 49 -24 103 -54 183 -102 184 -102 226 -100
22 2 54 5 70 8 17 3 53 8 80 11 62 8 67 12 -155 -120 -91 -54 -173 -105 -182
-113 -22 -18 -23 -55 -3 -75 8 -8 11 -17 8 -20 -14 -14 -26 -290 -38 -817 -6
-272 -12 -536 -21 -895 -3 -132 -6 -248 -5 -257 0 -22 -25 -24 -32 -4 -9 22
-54 42 -142 61 -69 15 -135 41 -170 68 -5 4 -40 29 -76 56 -36 27 -90 77 -120
111 -83 93 -105 103 -259 115 -76 6 -198 6 -240 1 -19 -3 -80 -10 -135 -16
-64 -8 -103 -17 -108 -25 -6 -11 -35 -14 -120 -13 -134 1 -211 -7 -336 -34
-553 -118 -1006 -540 -1190 -1108 -32 -100 -57 -198 -66 -265 -3 -22 -7 -49
-10 -60 -28 -141 -22 -487 11 -635 3 -14 7 -37 9 -51 4 -31 32 -141 48 -189 6
-19 23 -47 37 -61 14 -14 41 -55 60 -90 115 -210 414 -383 775 -450 51 -9 77
-13 175 -25 63 -8 431 -12 444 -6 5 3 30 6 55 7 25 1 64 5 86 8 22 4 58 9 80
12 48 6 285 55 333 69 327 91 613 223 839 387 45 32 83 59 86 59 2 0 3 -136 1
-302 -9 -981 -20 -2701 -27 -4403 l-2 -620 23 -43 c17 -29 30 -42 45 -42 12 0
130 47 262 103 376 163 496 219 503 236 3 9 12 22 19 29 7 7 13 19 14 25 10
200 19 1540 32 4659 2 472 7 861 11 865 4 4 33 9 64 10 98 5 325 21 377 27 22
3 83 8 135 11 52 4 99 7 105 8 6 1 11 -224 12 -663 1 -366 5 -915 8 -1220 3
-305 7 -825 10 -1155 3 -330 8 -847 10 -1150 3 -302 7 -836 10 -1187 l4 -636
-31 -13 c-81 -34 -204 -268 -192 -366 1 -7 2 -19 3 -27 0 -7 12 -25 25 -39 30
-32 82 -30 133 6 27 19 44 24 76 21 38 -4 45 -1 80 35 68 70 177 111 312 117
99 4 176 -16 216 -57 15 -16 31 -29 35 -29 3 0 13 -9 22 -20 26 -31 59 -7 111
80 98 166 329 581 339 608 16 45 9 51 -134 121 l-62 30 4 108 c7 227 4 1283
-12 3693 -3 426 -6 850 -7 942 -3 164 -1 188 9 132 25 -150 121 -230 279 -235
144 -4 359 108 492 256 l47 52 60 -49 c184 -149 422 -263 636 -303 14 -3 36
-8 50 -11 14 -4 36 -8 50 -10 14 -1 45 -6 70 -10 113 -17 305 -17 440 0 289
38 550 139 751 292 188 144 343 366 384 553 3 11 7 31 10 43 13 62 23 220 15
248 -3 10 -8 40 -13 77 -6 36 -30 119 -59 193 -13 35 -76 150 -87 160 -4 3
-19 23 -36 45 -16 22 -47 59 -69 83 -26 27 -41 54 -42 73 -2 17 -11 40 -21 51
-18 21 -86 55 -126 64 -50 11 -176 33 -232 40 -66 9 -522 10 -652 2 l-83 -5
83 79 c45 44 128 125 185 181 l103 102 -3 -43 c-1 -23 3 -47 9 -53 17 -17 77
5 203 74 63 35 147 80 185 101 39 21 96 56 128 77 32 21 66 41 77 44 10 3 30
29 44 58 60 122 39 230 -57 292 -63 41 -212 52 -341 25 -49 -10 -63 -9 -97 4
-22 9 -57 19 -77 22 -20 3 -48 7 -62 10 -27 5 -121 14 -215 20 -83 5 -381 5
-490 0 -205 -11 -441 -29 -535 -41 -19 -3 -53 -7 -75 -9 -37 -5 -182 -24 -230
-31 -25 -4 -152 -24 -185 -30 -127 -22 -397 -85 -491 -115 -51 -17 -97 -30
-101 -30 -4 0 -5 62 -2 138 3 75 6 585 6 1131 0 993 0 995 -20 1012 -13 10
-19 24 -16 36 9 34 -19 45 -128 48 -113 3 -228 27 -355 76 -96 37 -229 109
-267 144 -53 49 -69 56 -120 49 -75 -11 -132 -58 -301 -248 -75 -84 -185 -245
-185 -271 0 -25 18 -45 40 -45 9 0 25 -9 35 -20 10 -11 102 -61 204 -111 102
-50 187 -93 189 -94 2 -2 3 -101 2 -222 -1 -120 -2 -632 -3 -1138 -2 -698 -5
-925 -15 -942 -20 -36 -251 -165 -469 -261 l-113 -50 -1 31 c0 18 -3 390 -5
827 -4 884 -13 1840 -18 2028 -4 126 -12 152 -47 152 -43 0 -43 -5 -41 -855 1
-445 3 -1123 6 -1505 3 -382 1 -699 -3 -705 -4 -5 -4 -25 1 -42 7 -25 14 -33
33 -34 14 -1 31 -2 38 -3 22 -4 197 63 300 115 263 132 427 255 427 322 2 115
11 1372 13 1797 2 422 1 519 -11 540 -13 24 -173 103 -372 183 -41 17 -77 32
-78 33 -11 8 157 222 252 322 34 35 64 70 69 77 4 8 14 12 22 8 9 -3 22 0 30
7 11 9 19 7 37 -10 85 -79 337 -199 474 -225 16 -3 56 -11 89 -18 33 -7 94
-12 135 -11 l75 2 1 -1072 c0 -589 3 -1108 7 -1153 4 -54 3 -83 -3 -83 -14 0
-28 -40 -22 -62 9 -34 47 -31 189 16 76 25 153 47 170 51 18 3 45 10 60 16 15
6 29 10 31 9 1 -1 15 1 30 4 15 4 37 9 50 11 12 3 32 7 45 10 12 3 34 7 50 10
15 3 42 8 60 11 17 3 41 8 52 10 11 1 34 5 50 8 17 3 43 8 58 11 16 3 45 7 65
10 21 2 46 6 57 8 11 3 51 8 88 12 37 3 76 8 85 9 33 6 138 17 307 32 218 19
675 24 850 10 50 -4 102 -7 118 -6 15 0 27 -2 27 -5 0 -2 -24 -17 -52 -31 -65
-33 -187 -104 -212 -124 -72 -58 -117 -98 -157 -141 -42 -46 -69 -61 -69 -40
0 12 -154 87 -205 100 -110 28 -226 31 -295 7 -32 -11 -48 -12 -57 -4 -17 14
-107 4 -197 -23 -263 -77 -441 -257 -451 -456 -3 -71 24 -162 65 -213 14 -18
27 -35 30 -39 25 -35 148 -103 225 -126 73 -21 208 -24 250 -5 17 8 37 14 45
15 8 1 47 9 87 18 39 9 88 19 108 23 21 3 47 8 59 10 36 7 148 23 216 30 36 3
81 8 100 10 413 42 904 36 1068 -14 56 -18 57 -19 54 -53 -1 -21 -11 -40 -24
-50 -22 -17 -12 -34 12 -18 27 16 41 10 92 -43 292 -306 318 -727 64 -1057
-118 -153 -336 -308 -531 -376 -27 -9 -59 -21 -70 -26 -23 -10 -180 -48 -228
-55 -128 -18 -178 -21 -302 -19 -77 2 -160 6 -185 10 -192 29 -348 75 -505
151 -122 59 -202 115 -339 237 -40 35 -91 35 -91 -2 0 -24 -84 -117 -161 -178
-55 -43 -160 -99 -220 -116 -67 -20 -163 -15 -205 9 -54 31 -80 93 -75 179 5
86 33 162 95 257 102 156 288 299 424 326 47 10 164 4 187 -8 50 -27 86 25 46
65 -53 53 -189 61 -314 18 -246 -83 -497 -363 -529 -588 -18 -133 -20 -59 -26
1264 l-2 475 61 33 62 33 -25 -60 c-57 -142 -73 -335 -40 -486 57 -261 242
-471 499 -563 49 -18 71 -23 153 -38 17 -3 69 -6 117 -7 92 -1 123 12 123 52
0 34 -23 43 -122 47 -115 5 -136 9 -223 37 -79 25 -160 68 -220 117 -60 49
-71 60 -119 124 -124 168 -163 377 -111 595 18 77 80 240 101 268 5 5 6 20 2
32 -5 21 -11 22 -54 19 -35 -3 -73 -19 -144 -61 -53 -31 -103 -56 -111 -56
-18 0 -74 -59 -74 -78 0 -7 6 -23 14 -35 10 -16 14 -59 15 -152 0 -71 3 -602
6 -1180 16 -3354 27 -4799 40 -5236 5 -188 4 -217 -9 -229 -20 -16 -21 -67 -2
-86 23 -22 47 -17 76 18 l27 32 34 -21 c19 -11 33 -26 31 -33 -2 -8 -41 -81
-87 -164 -45 -83 -114 -209 -153 -280 -38 -70 -71 -124 -73 -120 -9 20 -88 64
-139 77 -65 16 -192 15 -270 -2 -83 -20 -194 -78 -242 -127 -47 -49 -67 -54
-86 -24 -18 29 -60 26 -68 -5 -8 -31 -26 -33 -20 -2 15 79 38 134 88 203 l30
41 24 -24 c24 -24 54 -25 77 -3 5 4 9 57 8 116 0 189 -10 1339 -11 1339 -1 0
-3 279 -6 620 -2 341 -7 904 -9 1250 -3 347 -7 889 -10 1205 -10 1254 -17
1594 -36 1617 -7 8 -13 26 -14 40 -2 50 -29 55 -210 39 -33 -3 -96 -8 -140
-11 -44 -3 -91 -8 -105 -10 -86 -13 -272 -21 -354 -15 -29 2 -59 -34 -57 -67
4 -55 2 -1357 -4 -2398 -3 -583 -6 -1531 -8 -2107 l-2 -1047 -115 -52 c-63
-29 -148 -67 -188 -86 -39 -18 -74 -33 -76 -33 -5 0 -255 -117 -277 -129 -9
-6 -19 -8 -21 -6 -2 2 -3 127 -1 277 1 150 4 708 6 1239 2 532 7 971 11 977 3
6 2 13 -4 17 -6 3 -7 14 -2 23 4 9 7 657 7 1439 0 1578 6 1449 -67 1454 -33 3
-48 -4 -110 -51 -203 -153 -393 -254 -641 -344 -122 -44 -340 -105 -437 -122
-25 -4 -47 -8 -50 -9 -3 -1 -32 -5 -65 -9 -33 -5 -71 -10 -85 -13 -46 -7 -214
-16 -315 -16 -471 -3 -875 137 -1073 373 -119 142 -178 323 -198 615 -9 125
-3 372 10 393 2 4 7 30 10 57 14 102 66 283 115 398 11 26 21 49 21 52 0 3 10
22 22 42 12 21 28 52 37 68 16 33 101 167 110 175 3 3 24 27 46 55 200 249
480 426 805 510 3 1 25 5 50 9 25 5 54 10 65 12 46 9 136 16 227 19 54 1 103
7 110 12 7 6 20 11 28 11 8 0 33 3 55 6 162 21 306 25 450 13 l70 -6 75 -79
c79 -84 202 -178 284 -218 44 -21 107 -38 191 -49 32 -5 55 -28 55 -55 0 -23
-68 -125 -116 -176 -21 -23 -59 -54 -84 -69 -39 -25 -276 -200 -290 -215 -18
-20 -138 -87 -151 -85 -53 8 -219 118 -308 203 -145 140 -201 184 -281 219
-46 20 -89 22 -205 9 -33 -4 -80 -9 -105 -11 -43 -4 -68 -22 -71 -52 -1 -7 -2
-19 -3 -25 -2 -14 12 -49 23 -58 4 -3 27 -32 52 -65 103 -134 200 -334 238
-485 30 -123 35 -163 35 -280 -1 -241 -96 -433 -269 -545 -27 -18 -60 -35 -72
-39 -24 -8 -30 3 -13 20 7 7 2 21 -14 43 -13 18 -36 71 -51 119 -14 48 -49
159 -78 247 -28 88 -52 165 -53 172 -1 6 -46 146 -99 310 -95 292 -149 433
-166 433 -10 0 -29 34 -34 62 -12 59 -52 62 -133 8 -78 -52 -155 -130 -203
-205 -21 -33 -43 -66 -49 -72 -6 -7 -8 -13 -5 -13 3 0 -1 -13 -9 -29 -36 -70
-69 -235 -68 -346 0 -138 52 -329 129 -474 102 -192 261 -368 448 -497 58 -40
262 -144 283 -144 5 0 15 -7 22 -15 7 -8 38 -22 69 -31 31 -9 63 -19 71 -22 8
-3 18 -5 22 -4 4 1 31 -3 60 -9 134 -26 400 -28 538 -5 14 3 41 7 60 10 118
18 125 19 230 46 47 12 121 34 165 50 118 41 125 43 69 16 -135 -65 -439 -148
-624 -171 -168 -22 -415 -22 -520 0 -14 2 -38 7 -55 10 -80 15 -162 40 -178
54 -12 10 -42 16 -90 17 -262 8 -517 274 -645 675 -17 53 -33 107 -36 120 -3
13 -9 47 -15 75 -38 194 -33 426 15 604 64 243 193 398 369 445 60 17 93 41
80 59 -3 3 -2 4 1 1 4 -2 8 -17 9 -32 2 -16 19 -62 38 -103 19 -41 130 -286
245 -545 271 -607 289 -644 331 -672 42 -29 72 -29 97 -2 67 75 -67 510 -257
830 -51 86 -83 121 -103 113 -9 -3 -16 -11 -16 -18 0 -6 35 -81 78 -166 106
-209 194 -442 226 -596 29 -136 -3 -95 -97 126 -42 96 -127 292 -190 435 -64
143 -153 346 -199 450 -77 173 -87 190 -111 193 -21 3 12 23 151 94 173 88
214 102 357 122 11 2 36 6 55 9 19 4 89 16 155 27 117 20 146 25 203 35 15 3
79 14 142 25 63 11 126 22 140 25 14 3 39 7 55 10 17 2 48 6 70 10 37 5 44 2
85 -36 25 -22 59 -53 76 -67 17 -15 77 -67 133 -117 l101 -90 -22 -16 c-13 -9
-98 -66 -189 -127 -161 -107 -167 -109 -196 -97 -16 7 -60 23 -97 35 -57 20
-69 28 -83 58 -38 79 -151 165 -253 192 -78 21 -83 22 -165 24 -309 10 -542
-187 -491 -414 18 -77 52 -114 94 -103 27 7 29 41 5 86 -21 41 -21 123 0 163
55 104 192 173 354 179 190 6 343 -68 409 -196 29 -59 38 -65 61 -41 17 18 21
17 106 -26 77 -39 92 -43 114 -33 14 6 109 67 213 136 103 69 194 127 202 130
9 4 21 18 27 32 13 29 5 38 -189 213 -51 47 -106 96 -120 110 -14 14 -45 42
-69 63 -48 43 -47 43 -200 12 -13 -2 -49 -7 -80 -11 -31 -3 -59 -8 -62 -10 -4
-2 -25 -6 -48 -9 -23 -3 -93 -14 -157 -25 -64 -11 -119 -19 -123 -18 -3 1 -19
-1 -36 -5 -16 -3 -47 -9 -67 -12 -21 -2 -57 -9 -80 -14 -24 -5 -63 -12 -88
-16 -25 -3 -52 -8 -60 -10 -8 -2 -35 -6 -60 -9 -110 -14 -127 -22 -135 -56 -4
-17 -10 -30 -15 -30 -4 0 -122 -52 -261 -115 l-252 -115 -92 -93 c-76 -78 -98
-107 -138 -189 -49 -102 -90 -241 -102 -345 -4 -40 -19 -87 -41 -133 -54 -109
-84 -243 -85 -375 -1 -60 2 -126 5 -145 41 -224 151 -427 322 -592 121 -118
251 -204 411 -273 82 -35 233 -82 293 -91 19 -3 41 -7 47 -9 29 -10 155 -18
253 -18 125 2 204 9 295 29 22 4 42 9 45 9 99 20 130 38 130 75 0 26 4 30 30
31 17 1 33 2 38 3 4 1 27 6 52 10 25 5 52 10 60 11 66 13 240 62 337 96 104
36 365 156 448 207 152 91 249 166 370 284 l61 58 2 -2652 c2 -2349 4 -2655
18 -2676 8 -12 19 -20 25 -17 5 4 16 -1 25 -10 20 -19 32 -16 146 41 94 47
113 53 105 30 -4 -9 2 -17 14 -21 24 -8 59 3 60 18 0 7 2 404 4 882 3 479 7
1219 10 1645 3 426 7 1305 9 1953 3 649 6 1180 8 1182 2 2 32 6 68 10 35 3 68
9 72 11 4 3 22 7 40 9 18 2 44 6 58 9 14 4 39 9 55 12 29 5 359 71 400 80 11
2 34 7 50 10 17 2 99 20 183 38 84 18 155 30 157 26 4 -7 7 -238 20 -1765 11
-1270 16 -1762 20 -2135 7 -588 15 -1375 19 -1841 4 -396 5 -406 27 -448 l22
-43 66 7 66 7 50 -69 c68 -94 66 -92 125 -91 45 1 53 5 61 25 12 33 14 533 5
1623 -5 503 -10 1203 -11 1555 -5 863 -14 2393 -20 3316 l-5 756 49 22 c27 11
82 32 123 46 40 15 82 30 93 35 90 40 471 148 580 166 21 3 48 10 61 14 40 15
32 0 -30 -63 -68 -67 -86 -98 -121 -197 -18 -54 -22 -83 -20 -165 5 -174 61
-301 190 -430 130 -131 256 -184 426 -181 63 1 98 -2 107 -10 15 -15 40 -11
150 25 85 29 192 54 282 66 25 3 59 8 75 11 163 29 623 34 755 10 14 -3 45 -8
70 -11 73 -9 185 -41 232 -66 34 -20 44 -31 49 -59 3 -19 24 -69 47 -110 39
-72 90 -193 98 -235 2 -11 8 -42 13 -69 44 -235 -46 -468 -237 -611 -98 -74
-252 -143 -357 -161 -16 -2 -39 -7 -50 -10 -11 -3 15 13 58 34 162 83 275 198
355 367 19 38 36 77 37 85 2 8 10 42 17 75 13 53 16 214 6 255 -3 8 -8 31 -12
50 -5 19 -24 67 -44 105 -68 132 -198 231 -338 257 -69 13 -94 7 -94 -20 0
-15 18 -26 74 -46 166 -61 266 -164 311 -319 93 -321 -161 -709 -508 -775 -72
-14 -174 -5 -250 21 -42 15 -82 24 -90 21 -8 -3 -26 10 -43 32 -91 115 -248
249 -390 332 -81 49 -227 109 -281 118 -21 3 -41 8 -46 11 -8 5 -115 15 -162
15 -75 1 -202 -30 -270 -64 -22 -12 -42 -21 -45 -22 -3 0 -12 -6 -20 -13 -8
-6 -37 -30 -64 -51 -53 -44 -119 -120 -142 -164 -15 -29 -15 -49 0 -60 6 -4 9
-25 8 -47 -4 -54 13 -62 94 -45 36 8 77 16 92 19 34 6 36 7 207 45 77 18 170
40 207 49 63 16 103 14 118 -8 3 -4 55 -45 115 -91 61 -46 146 -112 190 -145
44 -34 89 -66 100 -72 21 -11 46 -7 57 10 4 7 26 5 65 -6 160 -44 284 -60 458
-60 334 0 593 91 775 273 238 238 269 584 85 946 -29 56 -55 113 -59 126 -23
85 -193 160 -416 184 -30 4 -73 9 -95 13 -46 8 -490 6 -550 -3 -22 -3 -62 -8
-90 -11 -27 -3 -61 -7 -75 -9 -14 -2 -43 -6 -65 -10 -78 -11 -241 -47 -301
-66 -54 -17 -115 -22 -234 -20 -120 2 -235 56 -341 160 -117 115 -168 235
-164 390 3 117 30 184 104 259 49 50 129 101 159 101 18 0 36 32 34 59 -2 22
2 27 20 28 13 0 37 3 53 6 28 5 70 12 147 22 18 3 59 7 90 10 32 4 68 8 80 11
32 6 261 17 333 15 113 -2 229 -12 266 -23 68 -20 116 12 90 61 -11 20 -58 33
-166 47 -96 12 -411 6 -535 -11 -19 -3 -60 -7 -90 -10 -30 -3 -80 -10 -110
-15 -30 -5 -71 -11 -91 -14 -72 -11 -306 -58 -384 -78 -44 -11 -88 -21 -98
-23 -44 -9 -252 -71 -342 -102 -133 -46 -240 -93 -319 -142 l-66 -40 -1 107
c-4 347 -8 1029 -9 1577 -1 553 -3 632 -16 647 -12 13 -22 15 -40 8 -20 -8
-105 2 -214 25 -14 3 -55 8 -91 12 l-65 6 -12 -59 c-8 -43 -10 -358 -6 -1174
3 -613 7 -1190 8 -1282 2 -93 -1 -168 -5 -168 -5 0 -75 -53 -156 -118 -81 -65
-199 -148 -261 -185 -110 -65 -165 -85 -352 -123 -64 -13 -235 -57 -269 -68
l-37 -14 1 1337 c0 735 -2 1370 -5 1411 -4 61 -8 75 -22 78 -13 2 -18 -3 -19
-20 -1 -13 -2 -36 -4 -53 -7 -78 -20 -1274 -30 -2855 -3 -470 -8 -1147 -10
-1505 -3 -357 -7 -1289 -11 -2070 -6 -1470 -10 -2196 -12 -2206 -3 -10 -214
-130 -220 -124 -3 3 -7 1426 -9 3162 -2 1737 -5 3695 -6 4351 -1 657 0 1197 3
1201 3 4 41 20 85 36 149 51 175 65 175 92 0 13 -7 26 -15 29 -18 7 -107 -24
-212 -73 -39 -18 -75 -33 -81 -33 -33 0 -33 -11 -32 -1674 l0 -1645 -37 -43
c-93 -109 -200 -204 -334 -301 -50 -36 -121 -78 -126 -74 -2 3 15 16 39 30 80
47 191 155 236 230 73 122 69 257 -8 257 -21 0 -48 -22 -124 -100 -53 -55 -98
-100 -100 -100 -12 0 -30 141 -30 230 -1 122 5 171 35 287 34 137 71 210 141
276 34 31 69 57 78 57 9 0 24 6 34 13 19 14 18 -3 31 507 3 113 7 293 10 400
3 107 7 281 10 385 3 105 7 285 10 400 2 116 7 338 11 495 3 157 6 359 6 449
0 156 1 165 21 182 12 10 25 18 29 19 3 0 55 30 115 66 59 37 122 75 138 84
17 10 86 52 154 94 l125 76 21 -20 22 -20 12 27 c7 15 15 47 18 70 5 39 3 44
-21 53 -32 12 -40 9 -150 -57 -49 -29 -90 -53 -92 -53 -2 0 4 8 14 18 30 31
165 182 192 215 14 17 44 49 68 72 42 42 53 74 30 93 -13 9 -85 21 -92 15z
m1229 -679 c77 -19 141 -37 144 -39 6 -6 10 -360 15 -1320 3 -495 8 -1363 12
-1930 3 -566 7 -1286 9 -1600 2 -313 6 -1011 9 -1550 4 -539 9 -1376 12 -1860
2 -484 7 -955 9 -1047 3 -139 2 -168 -10 -168 -7 0 -40 33 -72 72 -64 78 -78
84 -159 65 l-30 -8 -2 158 c0 87 -3 412 -6 723 -3 311 -8 842 -11 1180 -3 338
-8 824 -10 1080 -8 737 -14 1302 -20 1900 -3 305 -7 687 -9 848 l-4 294 28 9
c49 18 43 84 -8 84 -12 0 -17 9 -19 30 -1 34 -11 720 -18 1290 -11 945 -15
1167 -20 1415 -3 146 -8 300 -10 343 -5 71 -3 78 13 73 9 -3 80 -22 157 -42z
m3314 -1865 c56 -31 63 -69 29 -153 l-26 -61 -213 -107 c-118 -58 -216 -104
-219 -101 -2 2 9 29 25 60 32 61 35 91 9 110 -20 15 -61 -1 -69 -28 -3 -9 -22
-29 -41 -44 -19 -15 -52 -43 -74 -63 -21 -21 -89 -85 -152 -143 -238 -224
-268 -255 -263 -277 5 -27 -1 -30 -56 -36 -106 -11 -223 -27 -231 -32 -19 -12
-6 17 20 44 46 48 197 214 233 257 19 22 37 42 40 45 13 11 36 66 32 77 -8 21
85 135 168 207 45 39 181 127 244 158 217 108 443 144 544 87z m-1285 -274
c95 -14 267 -110 249 -138 -4 -7 -9 -23 -11 -37 -2 -15 -40 -62 -97 -120 -162
-165 -235 -244 -240 -262 -4 -10 -2 -26 4 -36 9 -17 3 -19 -67 -31 -101 -17
-94 -16 -192 -42 -104 -28 -149 -30 -209 -12 -157 47 -247 134 -259 250 -4 44
24 153 39 153 5 0 9 6 9 13 0 18 85 101 144 141 92 61 267 119 329 109 45 -7
56 -6 112 10 48 14 103 15 189 2z m-4060 -272 c-2 -49 -5 -170 -6 -271 l-2
-183 -32 -19 c-47 -27 -119 -132 -154 -220 -41 -107 -71 -266 -73 -386 -2 -97
-3 -101 -22 -94 -27 10 -38 5 -85 -39 -52 -48 -155 -109 -260 -153 -101 -43
-199 -77 -238 -84 -15 -3 -52 -11 -82 -19 -90 -22 -158 -30 -280 -29 -97 0
-123 3 -164 22 -54 25 -55 15 10 92 44 53 101 175 125 270 25 101 32 301 12
395 -7 33 -15 74 -17 90 -10 59 -69 221 -111 307 -37 72 -103 179 -171 274
-14 20 -13 21 23 22 21 0 61 3 90 6 86 10 147 -26 317 -185 44 -41 87 -81 96
-89 33 -31 172 -122 214 -140 115 -51 170 -31 404 149 82 63 99 76 197 145 77
55 112 90 153 151 25 38 53 75 57 75 1 0 0 -39 -1 -87z m-2250 -179 c2 -11 11
-47 20 -82 17 -62 17 -62 -8 -95 -26 -35 -68 -124 -80 -172 -4 -16 -10 -39
-13 -50 -11 -42 -12 -216 -2 -272 15 -81 74 -227 121 -296 82 -120 222 -245
350 -311 55 -29 58 -32 69 -83 7 -29 17 -54 23 -54 6 -1 22 -3 36 -4 49 -5
199 66 253 119 16 17 17 16 17 -2 0 -36 61 -77 144 -96 59 -13 341 -10 341 4
0 1 14 4 30 6 50 8 215 54 280 79 171 65 290 133 377 217 l28 26 10 -41 c23
-94 35 -123 57 -148 22 -24 28 -26 58 -16 19 5 64 38 100 73 36 34 65 59 65
54 0 -14 -84 -113 -131 -154 -103 -90 -252 -174 -431 -240 -103 -38 -302 -92
-377 -102 -25 -3 -48 -8 -52 -9 -29 -18 -439 -27 -529 -13 -100 17 -117 20
-170 35 -30 9 -79 26 -108 39 -29 13 -56 24 -60 25 -4 1 -24 13 -44 25 -21 13
-40 24 -43 24 -3 0 -37 20 -75 45 -284 185 -482 461 -543 757 -20 96 -15 284
11 373 37 127 112 239 221 329 46 39 50 39 55 10z m4072 -321 l-1 -217 -55
-12 c-30 -6 -113 -23 -185 -38 -71 -15 -141 -30 -155 -32 -14 -3 -32 -7 -40
-9 -8 -2 -31 -7 -50 -10 -19 -3 -55 -11 -80 -16 -25 -6 -56 -13 -70 -16 -85
-16 -381 -84 -433 -99 -17 -5 -18 2 -16 95 1 56 5 104 10 107 5 3 19 7 32 9
12 2 45 7 72 11 28 4 55 8 60 10 17 4 59 13 90 19 285 58 322 70 430 133 17
10 53 31 80 47 46 26 151 104 200 147 18 15 109 88 111 88 0 0 0 -98 0 -217z
m-3950 66 c8 -30 17 -61 19 -69 2 -8 27 -89 55 -180 28 -91 53 -172 55 -180 8
-28 43 -145 94 -309 28 -90 50 -166 48 -167 -2 -2 -30 16 -63 40 -217 158
-333 377 -321 608 5 107 9 126 42 213 28 76 45 109 51 102 3 -3 12 -29 20 -58z
m-639 -376 c14 -535 303 -1041 665 -1164 42 -14 93 -22 153 -24 63 -1 107 -8
148 -24 111 -41 260 -64 430 -64 48 0 85 -2 82 -5 -22 -22 -392 -37 -470 -19
-11 3 -40 8 -65 12 -173 27 -385 114 -550 226 -85 57 -226 197 -280 278 -62
92 -118 218 -145 327 -21 81 -24 114 -21 222 2 70 6 141 10 157 10 45 36 135
39 135 1 0 3 -26 4 -57z m6343 -578 c74 -11 199 -55 277 -96 130 -69 221 -138
356 -269 54 -52 110 -101 125 -107 15 -7 47 -22 72 -32 l45 -20 -60 5 c-33 3
-107 14 -165 26 -58 11 -116 20 -130 20 -16 0 -98 56 -242 164 -172 130 -224
164 -248 164 -17 0 -86 -14 -153 -31 -67 -17 -129 -32 -137 -34 -33 -7 -219
-56 -282 -74 -73 -21 -83 -15 -43 25 14 14 25 29 25 34 0 4 26 35 59 68 85 86
181 137 301 157 19 3 36 7 37 9 5 4 113 -2 163 -9z m-3830 -319 c0 -2 -7 -7
-16 -10 -8 -3 -12 -2 -9 4 6 10 25 14 25 6z m-70 -40 c0 -2 -9 -6 -20 -9 -11
-3 -18 -1 -14 4 5 9 34 13 34 5z"/>
<path d="M7241 8049 c-104 -104 -163 -238 -164 -374 0 -88 7 -130 37 -217 35
-100 81 -171 166 -258 124 -126 270 -211 455 -265 98 -28 129 -33 250 -40 67
-3 83 -1 100 15 11 10 38 21 60 24 22 4 54 9 70 12 24 4 588 117 645 129 8 2
62 13 119 24 114 23 131 32 131 68 0 31 -32 43 -85 31 -22 -6 -51 -12 -63 -14
-13 -3 -117 -25 -230 -50 -114 -25 -259 -56 -322 -69 -63 -14 -167 -38 -230
-54 -113 -28 -131 -29 -262 -16 -126 12 -299 72 -426 147 -87 51 -231 200
-274 283 -87 169 -89 319 -7 476 28 51 48 78 117 151 21 23 23 30 12 43 -21
25 -35 18 -99 -46z"/>
<path d="M8926 7033 c-27 -7 -90 -30 -140 -52 -50 -22 -107 -42 -126 -46 -19
-3 -57 -9 -85 -14 -27 -5 -63 -9 -80 -9 -48 1 -187 -11 -267 -23 -121 -18
-130 -19 -213 -37 -79 -17 -80 -17 -83 -50 -3 -32 4 -40 42 -46 8 -1 19 -5 22
-9 4 -4 12 -3 18 2 6 5 31 12 56 16 25 3 59 8 75 11 105 18 160 24 290 30 128
6 146 8 185 17 14 4 36 9 50 11 14 3 34 7 45 9 31 7 107 39 132 55 12 7 26 14
30 14 4 0 18 4 30 9 12 4 44 11 71 15 l49 6 55 -68 c62 -78 70 -91 91 -156 39
-113 42 -277 8 -376 -28 -83 -68 -125 -148 -157 -96 -38 -165 -28 -236 36 -10
9 -48 28 -85 43 -37 15 -94 49 -127 76 -89 74 -188 141 -305 206 -58 32 -132
76 -165 99 -74 50 -191 90 -238 81 -29 -5 -33 -10 -35 -39 -3 -38 3 -42 108
-78 58 -19 105 -43 120 -59 10 -11 65 -43 139 -83 90 -47 226 -136 261 -169
50 -47 127 -97 203 -132 42 -19 93 -47 113 -62 72 -56 176 -60 298 -12 150 59
236 228 223 441 -11 178 -42 272 -121 374 -107 140 -141 156 -260 126z"/>
</g>
</svg>
